<?xml version="1.0" standalone="no"?>
<!DOCTYPE svg PUBLIC "-//W3C//DTD SVG 20010904//EN"
 "http://www.w3.org/TR/2001/REC-SVG-20010904/DTD/svg10.dtd">
<svg version="1.0" xmlns="http://www.w3.org/2000/svg"
 width="225.000000pt" height="225.000000pt" viewBox="0 0 225.000000 225.000000"
 preserveAspectRatio="xMidYMid meet">

<g transform="translate(0.000000,225.000000) scale(0.100000,-0.100000)"
fill="#000000" stroke="none">
<path d="M240 2241 c-89 -19 -170 -83 -210 -167 -36 -74 -35 -179 3 -256 34
-69 91 -121 164 -148 143 -53 303 11 370 148 37 75 39 182 4 254 -29 60 -88
120 -144 146 -49 23 -136 34 -187 23z"/>
<path d="M1493 1520 c-72 -19 -136 -47 -185 -82 l-28 -19 0 40 c0 70 -3 71
-251 71 -133 0 -228 -4 -240 -10 -19 -10 -19 -29 -19 -753 0 -565 3 -746 12
-755 13 -13 461 -18 492 -6 14 5 16 49 16 383 0 535 12 609 103 669 36 24 50
27 126 27 75 0 90 -3 120 -24 18 -13 43 -45 55 -70 20 -44 21 -64 26 -509 4
-397 7 -464 20 -472 21 -13 466 -13 491 0 18 10 19 26 19 458 0 246 -5 488
-10 537 -39 369 -215 536 -560 534 -79 0 -137 -6 -187 -19z"/>
<path d="M52 1518 c-17 -17 -17 -1489 0 -1506 17 -17 479 -17 496 0 17 17 17
1489 0 1506 -17 17 -479 17 -496 0z"/>
</g>
</svg>
